<svg width="55" height="55" viewBox="0 0 55 55" fill="none" xmlns="http://www.w3.org/2000/svg">
<path fill-rule="evenodd" clip-rule="evenodd" d="M23.0165 8C15.6393 9.83217 9.83225 15.6392 8 23.0163H8.20127C11.0279 23.0163 13.3193 25.3077 13.3193 28.1343C13.3193 30.9609 11.0279 33.2523 8.20128 33.2523H8.06867C9.97385 40.5015 15.7291 46.1901 23.0165 47.9999V46.7209C23.0165 43.8944 25.3079 41.603 28.1345 41.603C30.961 41.603 33.2524 43.8944 33.2524 46.7209V47.9312C40.4122 46.0494 46.0495 40.412 47.9312 33.2523H47.7982C44.9717 33.2523 42.6803 30.9609 42.6803 28.1343C42.6803 25.3077 44.9717 23.0163 47.7982 23.0163H47.9998C46.1899 15.7291 40.5015 9.97399 33.2524 8.06877V8.20132C33.2524 11.0279 30.961 13.3193 28.1345 13.3193C25.3079 13.3193 23.0165 11.0279 23.0165 8.20133V8ZM17.6978 28C17.6978 33.6897 22.3102 38.3021 27.9999 38.3021C33.6896 38.3021 38.3021 33.6897 38.3021 28C38.3021 22.3102 33.6896 17.6978 27.9999 17.6978C22.3102 17.6978 17.6978 22.3102 17.6978 28Z" fill="white"/>
</svg>
